<?xml version="1.0" encoding="utf-8"?>
<!-- Generator: Adobe Illustrator 24.1.3, SVG Export Plug-In . SVG Version: 6.00 Build 0)  -->
<svg version="1.1" xmlns="http://www.w3.org/2000/svg" xmlns:xlink="http://www.w3.org/1999/xlink" x="0px" y="0px"
	 viewBox="0 0 100 100" style="enable-background:new 0 0 100 100;" xml:space="preserve">
<style type="text/css">
	.st0{fill:url(#SVGID_1_);}
	.st1{opacity:0.7;fill:#FFFFFF;}
	.st2{fill:#FFFFFF;}
	.st3{fill:url(#SVGID_2_);}
	.st4{fill-rule:evenodd;clip-rule:evenodd;fill:#FFFFFF;}
	.st5{opacity:0.75;fill-rule:evenodd;clip-rule:evenodd;fill:#FFFFFF;}
	.st6{opacity:0.55;fill-rule:evenodd;clip-rule:evenodd;fill:#FFFFFF;}
</style>
<g id="Referenzen">
	<linearGradient id="SVGID_1_" gradientUnits="userSpaceOnUse" x1="80.5308" y1="109.9201" x2="19.4692" y2="-9.9201">
		<stop  offset="0" style="stop-color:#5D4B41"/>
		<stop  offset="1" style="stop-color:#9E8A78"/>
	</linearGradient>
	<rect x="0" class="st0" width="100" height="100"/>
	<g>
		<path class="st1" d="M81.9,66.5c-0.1-0.3-0.3-0.4-0.6-0.5l-5.9-2.2c-0.5-0.2-1.1,0.1-1.3,0.6l-0.4,1l-6.9-2.5
			c-0.2-0.1-0.4-0.1-0.5,0L52,65.4c-1.3,0.2-2.4,1.1-3,2.2l-6.5-2.4c-1-0.4-2.2-0.3-3.2,0.1c-1.3,0.6-2.2,1.8-2.4,3.2
			c-0.3,2,0.9,3.9,2.9,4.6l18.6,6.8l3,1.1c0.2,0.1,0.5,0.1,0.7,0l6-2l0.6,0.2l-0.4,1c-0.2,0.5,0.1,1.1,0.6,1.3l5.9,2.2
			c0.5,0.2,1.1-0.1,1.3-0.6l5.7-15.8C82,67,82,66.7,81.9,66.5z M67.7,76.9l-6,2l-21.2-7.7c-1-0.3-1.6-1.3-1.5-2.3
			c0.1-0.6,0.5-1.2,1-1.5c0.5-0.3,1.2-0.4,1.8-0.2l6.8,2.5c0,0.2,0,0.4,0,0.6c0.4,2.3,2.6,3.8,4.9,3.4l11.8-2.1l-0.4-2.1l-11.8,2.1
			c-1.1,0.2-2.2-0.6-2.4-1.7c0-0.2,0-0.5,0-0.7c0,0,0-0.1,0-0.1c0-0.1,0-0.2,0.1-0.3c0.3-0.7,0.9-1.2,1.6-1.4l14-2.5l6.6,2.4
			l-3.6,9.9l-1-0.4C68.2,76.8,67.9,76.8,67.7,76.9L67.7,76.9z M74.6,81.4l-3.9-1.4l5-13.8l3.9,1.4L74.6,81.4z"/>
		<path class="st2" d="M39.7,47.2l2-1.5V59c0,1.2,0.9,2.1,2.1,2.1h18.9c1.2,0,2.1-0.9,2.1-2.1V45.7l2,1.5c0.5,0.4,1.1,0.6,1.7,0.6
			c1,0,1.9-0.5,2.5-1.3c0.9-1.3,0.5-3.1-0.8-4l-8-5.6c0.3-0.2,0.5-0.5,0.7-0.8c1-1.7,0.7-3.8-0.7-5.1l-8.5-8.5
			c-1.4-1.4-3.2-2.2-5.2-2.2h-11c-0.1,0-0.3,0-0.4,0.1L30,23.3h-0.8v-2.1c0-0.6-0.5-1-1-1h-8.4c-0.6,0-1.1,0.5-1.1,1V38
			c0,0.6,0.5,1,1.1,1h8.4c0.6,0,1-0.5,1-1v-2.1h0.2c0.8,2.5,4.1,4.2,7.2,4.2c3.1,0,6.4-1.7,7.2-4.2h1.8l-9.2,6.5
			c-1.3,0.9-1.6,2.7-0.7,4C36.5,47.8,38.4,48.1,39.7,47.2z M27,37h-6.3V22.3H27V37z M48,59v-6.3h4.2V59H48z M62.7,59h-8.4v-7.3
			c0-0.6-0.5-1-1.1-1H47c-0.6,0-1.1,0.5-1.1,1V59h-2.1V44.2l9.4-6.9l9.4,6.9V59z M42.8,33.8c-0.6,0-1,0.5-1,1c0,1.6-2.6,3.1-5.2,3.1
			c-2.6,0-5.2-1.6-5.2-3.1c0-0.6-0.5-1-1.1-1h-1v-8.4h1c0.1,0,0.3,0,0.4-0.1l7.1-3.1h10.8c1.4,0,2.7,0.5,3.7,1.5l8.5,8.5
			c0.7,0.6,0.8,1.7,0.4,2.5c-0.3,0.5-0.8,0.8-1.4,0.8c-0.6,0.1-1.1-0.1-1.6-0.5l-3.9-3.9c-0.2-2.1-2-3.7-4.2-3.7h-9.4v2.1h9.4
			c1.2,0,2.1,0.9,2.1,2.1c0,1.2-0.9,2.1-2.1,2.1H42.8z M37.3,45.3c-0.2-0.4-0.2-0.9,0.2-1.1l11.6-8.2h1c1.5,0,3-0.8,3.7-2.2l2.9,2.9
			c0.9,0.9,2.1,1.3,3.3,1.1l9,6.3c0.3,0.2,0.4,0.5,0.3,0.9c-0.1,0.3-0.3,0.6-0.7,0.6c-0.2,0-0.4,0-0.6-0.1L53.9,35.1
			c-0.4-0.3-0.9-0.3-1.2,0L38.5,45.5c-0.1,0.1-0.3,0.2-0.5,0.2C37.7,45.6,37.5,45.5,37.3,45.3z"/>
		<path class="st2" d="M55.8,52.2v4.1c0,0.6,0.5,1,1,1H61c0.6,0,1-0.5,1-1v-4.1c0-0.6-0.5-1-1-1h-4.1C56.3,51.2,55.8,51.6,55.8,52.2
			z M57.9,53.2h2.1v2.1h-2.1V53.2z"/>
		<path class="st2" d="M50.6,43.9c0,1.7,1.4,3.1,3.1,3.1c1.7,0,3.1-1.4,3.1-3.1c0-1.7-1.4-3.1-3.1-3.1C52,40.8,50.6,42.2,50.6,43.9z
			 M54.8,43.9c0,0.6-0.5,1-1,1c-0.6,0-1-0.5-1-1c0-0.6,0.5-1,1-1C54.3,42.9,54.8,43.4,54.8,43.9z"/>
	</g>
</g>
<g id="Estate_Manager_Core">
	<linearGradient id="SVGID_2_" gradientUnits="userSpaceOnUse" x1="80.5308" y1="109.9201" x2="19.4692" y2="-9.9201">
		<stop  offset="0" style="stop-color:#113058"/>
		<stop  offset="1" style="stop-color:#0873EF"/>
	</linearGradient>
	<rect x="0" class="st3" width="100" height="100"/>
	<g>
		<path class="st4" d="M28.1,49.5c0,1.3,0,2.6,0,3.8c0,0.1,0.2,0.3,0.3,0.4c1.8,1,3.5,2.1,5.3,3.1c2.7,1.6,5.5,3.2,8.2,4.8
			c1.9,1.1,3.9,2.3,5.8,3.4c0.4,0.3,0.6,0.5,0.6,1.1c0,2.3,0,4.7,0,7.2c-6.8-4-13.5-7.9-20.3-11.8c0,1.3,0,2.5,0,3.6
			c0,0.2,0.4,0.5,0.6,0.7c6.3,3.7,12.6,7.4,19,11.1c0.6,0.3,0.7,0.7,0.7,1.3c0,2,0,4,0,6c0,0.3,0,0.6,0,1c-0.4-0.2-0.6-0.3-0.8-0.4
			c-8.5-5-17.1-10-25.6-14.9c-0.5-0.3-0.7-0.6-0.7-1.2c0-10,0-19.9,0-29.9c0-0.3,0-0.5,0-0.9c0.4,0.2,0.6,0.3,0.9,0.5
			c7.4,4.3,14.8,8.6,22.2,13c1.1,0.7,2.3,1.3,3.4,2c0.2,0.2,0.5,0.5,0.5,0.8c0,2.4,0,4.7,0,7.1c0,0.1,0,0.1-0.1,0.3
			C41.5,57.3,34.8,53.4,28.1,49.5z"/>
		<path class="st5" d="M63,79.1c0-8,0-15.8,0-23.7c-1.1,0.7-2.2,1.2-3.1,1.9c-0.2,0.1-0.2,0.6-0.2,0.8c0,7.3,0,14.7,0,22
			c0,0.7-0.2,1.1-0.8,1.4c-2,1.1-3.9,2.2-5.9,3.4c0-0.3-0.1-0.5-0.1-0.7c0-10,0-20.1,0-30.1c0-0.5,0.1-0.8,0.6-1.1
			c8.6-5,17.2-10,25.8-15c0.2-0.1,0.4-0.2,0.7-0.4c0,0.4,0,0.7,0,1c0,9.3,0,18.7,0,28c0,0.3,0,0.6,0,0.9c0,1.4-0.3,1.9-1.3,2.4
			c-1.6,0.8-3.1,1.8-4.7,2.7c-0.2,0.1-0.5,0.2-0.8,0.4c0-7.9,0-15.7,0-23.7c-1.2,0.7-2.3,1.3-3.3,2c-0.2,0.1-0.2,0.5-0.2,0.8
			c0,4.8,0,9.7,0,14.5c0,2.6,0,5.2,0,7.8c0,0.3-0.1,0.6-0.3,0.7C67.4,76.5,65.3,77.8,63,79.1z"/>
		<path class="st6" d="M51.9,50.2c-0.7,0.7-1.1,0.6-2.2,0c-8.6-5-17.2-10-25.8-15c-0.5-0.3-0.9-0.5-1.5-0.9c0.3-0.2,0.5-0.4,0.8-0.5
			c8.9-5.2,17.7-10.3,26.6-15.5c0.5-0.3,0.9-0.3,1.4,0c8.9,5.2,17.8,10.4,26.7,15.6c0.2,0.1,0.4,0.2,0.7,0.4
			c-0.3,0.2-0.5,0.3-0.7,0.5c-8.4,4.9-16.4,9.7-24.9,14.6C52.3,49.8,52.4,49.8,51.9,50.2z M36.3,34.2c0.4,0.2,0.6,0.4,0.8,0.5
			c4.2,2.5,8.5,4.9,12.7,7.4c0.5,0.3,0.9,0.3,1.5,0c4.2-2.5,8.5-5,12.7-7.4c0.2-0.1,0.4-0.3,0.7-0.5c-0.2-0.2-0.4-0.3-0.6-0.4
			c-4.4-2.5-8.7-5.1-13.1-7.6c-0.5-0.3-0.8-0.2-1.2,0.1c-4.2,2.5-8.4,4.9-12.6,7.4C36.9,33.8,36.7,34,36.3,34.2z"/>
	</g>
</g>
</svg>
