<?xml version="1.0" encoding="utf-8"?>
<!-- Generator: Adobe Illustrator 23.1.0, SVG Export Plug-In . SVG Version: 6.00 Build 0)  -->
<svg version="1.1" id="Ebene_1" xmlns="http://www.w3.org/2000/svg" xmlns:xlink="http://www.w3.org/1999/xlink" x="0px" y="0px"
	 width="16px" height="16px" viewBox="0 0 16 16" style="enable-background:new 0 0 16 16;" xml:space="preserve">
<style type="text/css">
	.st0{fill:#0A3D79;}
	.st1{fill:#A21022;}
	.st2{fill:#0873EF;}
	.st3{fill:#D11020;}
</style>
<path class="st0" d="M1.3,5.9l5.9-4.4l5.9,4.4C13.2,6,13.3,6,13.5,6c0.2,0,0.4-0.1,0.5-0.2c0.2-0.3,0.2-0.7-0.1-0.9L7.6,0.2
	C7.3,0,7,0,6.8,0.2L0.6,4.9C0.3,5.1,0.2,5.5,0.4,5.8C0.6,6,1,6.1,1.3,5.9z"/>
<g>
	<path class="st1" d="M15.8,10.7c0-0.2,0-0.4-0.1-0.7c-0.1-0.7-0.4-1.3-0.7-1.8c-0.2-0.4-0.5-0.7-0.8-1c-0.3-0.3-0.6-0.5-0.9-0.7
		c-0.5-0.3-1-0.5-1.6-0.6C11.3,6,11,6,10.7,6c-0.3,0-0.5,0-0.8,0.1C9.4,6.2,8.8,6.4,8.3,6.7C7.8,7,7.3,7.4,6.9,7.9
		C6.6,8.3,6.3,8.8,6.1,9.3C6,9.7,5.9,10.2,5.8,10.7c0,0.2,0,0.3,0,0.5c0,0.2,0,0.5,0.1,0.7c0.1,0.7,0.4,1.4,0.9,2
		c0.4,0.6,0.9,1.1,1.6,1.4c0.8,0.4,1.6,0.7,2.5,0.7c0.2,0,0.4,0,0.7-0.1c0.5-0.1,1-0.2,1.4-0.4c0.6-0.3,1.1-0.7,1.6-1.1
		c0.3-0.3,0.5-0.7,0.7-1c0.3-0.5,0.5-1,0.5-1.6c0-0.2,0.1-0.5,0.1-0.7C15.8,10.9,15.8,10.8,15.8,10.7z M10.8,14.8
		c-2.1,0-3.9-1.8-3.9-4c0-2,1.8-3.8,3.9-3.7c2.1-0.1,3.9,1.8,3.9,3.9C14.7,13,12.9,14.8,10.8,14.8z"/>
	<g>
		<path class="st2" d="M6.9,14.7H1.6l0-7l5.6-4.2l2.9,2.2c0.2,0,0.4-0.1,0.7-0.1c0,0,0.1,0,0.1,0c0.3,0,0.6,0,0.9,0.1
			c0.2,0,0.4,0.1,0.6,0.1L7.6,2.2C7.3,2,7,2,6.8,2.2L0.6,6.9C0.4,7,0.3,7.2,0.3,7.4v7.9c0,0.3,0.3,0.6,0.6,0.6h7.8
			c-0.2-0.1-0.4-0.2-0.6-0.3C7.7,15.4,7.3,15.1,6.9,14.7z"/>
	</g>
</g>
<g>
	<path class="st3" d="M13.2,9.5L11.7,11l1.5,1.5c0.2,0.2,0.2,0.6,0,0.8c-0.1,0.1-0.3,0.2-0.4,0.2c-0.1,0-0.3-0.1-0.4-0.2l-1.5-1.5
		l-1.5,1.5c-0.1,0.1-0.3,0.2-0.4,0.2c-0.1,0-0.3-0.1-0.4-0.2c-0.2-0.2-0.2-0.6,0-0.8l1.5-1.5L8.6,9.5c-0.2-0.2-0.2-0.6,0-0.8
		c0.2-0.2,0.6-0.2,0.8,0l1.5,1.5l1.5-1.5c0.2-0.2,0.6-0.2,0.8,0C13.5,8.9,13.5,9.3,13.2,9.5z"/>
</g>
</svg>
