<?xml version="1.0" encoding="utf-8"?>
<!-- Generator: Adobe Illustrator 23.1.0, SVG Export Plug-In . SVG Version: 6.00 Build 0)  -->
<svg version="1.1" id="Ebene_1" xmlns="http://www.w3.org/2000/svg" xmlns:xlink="http://www.w3.org/1999/xlink" x="0px" y="0px"
	 width="16px" height="16px" viewBox="0 0 16 16" style="enable-background:new 0 0 16 16;" xml:space="preserve">
<style type="text/css">
	.st0{fill:#0873EF;}
	.st1{fill:#0A3D79;}
	.st2{fill:#EB734D;}
	.st3{fill:#D56A46;}
</style>
<g>
	<g>
		<path class="st0" d="M1.9,13.1c0.5-0.1,0.9-0.4,1-1c0-0.3-0.1-0.6-0.3-0.8c-0.2-0.2-0.4-0.4-0.7-0.4c0.3-0.1,0.5-0.2,0.7-0.4
			c0.2-0.2,0.3-0.5,0.3-0.8c-0.1-0.5-0.3-0.9-1-1.1c0.1,0,0.1,0,0.2-0.1c0.5-0.1,0.8-0.6,0.8-1.1c0-0.6-0.4-0.9-0.9-1.1
			c0,0,0,0-0.1,0c0,0,0,0,0,0c0,0,0,0,0,0c0,0,0,0,0.1,0c0.6-0.1,1.2-0.9,0.7-1.7C2.5,4.2,2.2,4.1,1.8,4.1c-0.1,0-0.2,0-0.3,0
			c-0.1,0-0.1,0,0-0.1c0.2-0.3,0.4-0.4,0.7-0.5c0.1,0,0.3,0,0.4,0c0.9,0,1.8,0,2.7,0c0,0,0.1,0,0.1,0c0.1,0,0.1,0,0.1,0.1
			C5.3,3.9,5.3,4.2,5.2,4.5c0,0.1-0.1,0.1-0.1,0.1c-0.2,0-0.5,0-0.7,0c-0.2,0-0.5,0-0.7,0c-0.2,0-0.2,0-0.2,0.2c0,0.6,0,1.2,0,1.8
			c0,2.7,0,5.3,0,8c0,0.3,0,0.2,0.2,0.2c2.5,0,4.9,0,7.4,0c0.2,0,0.2,0,0.2-0.2c0-1.2,0-2.4,0-3.5c0,0,0-0.1,0-0.1
			c0-0.1,0-0.1,0.1-0.1c0.3,0,0.6-0.1,0.9-0.2c0.1,0,0.1,0,0.1,0.1c0,0,0,0.1,0,0.1c0,1.3,0,2.6,0,3.9c0,0.5-0.2,0.8-0.6,1
			c-0.2,0.1-0.4,0.2-0.6,0.2c-0.1,0-0.2,0-0.3,0c-2.8,0-5.7,0-8.5,0c-0.3,0-0.6-0.1-0.8-0.3c-0.1-0.1-0.1-0.2-0.2-0.2
			c0,0,0-0.1,0-0.1c0.1,0,0.2,0,0.3,0c0.3,0,0.5-0.1,0.7-0.2c0.5-0.4,0.6-1,0.3-1.5c-0.1-0.2-0.4-0.4-0.6-0.5
			C2,13.1,2,13.1,1.9,13.1z"/>
		<path class="st0" d="M7.4,13.6c-0.9,0-1.7,0-2.6,0c-0.2,0-0.2,0-0.2-0.2c0-0.3,0-0.5,0-0.8c0-0.1,0-0.1,0.1-0.1c0,0,0,0,0,0
			c1.8,0,3.6,0,5.3,0c0.1,0,0.1,0,0.2,0.1c0,0.3,0,0.6,0,0.9c0,0.1,0,0.1-0.1,0.1c-0.2,0-0.5,0-0.7,0C8.7,13.6,8.1,13.6,7.4,13.6z"
			/>
		<path class="st0" d="M7.4,11.4c-0.9,0-1.8,0-2.6,0c-0.2,0-0.2,0-0.2-0.2c0-0.3,0-0.5,0-0.8c0-0.2,0-0.2,0.2-0.2c0.7,0,1.3,0,2,0
			c0.5,0,0.9,0,1.4,0c0.1,0,0.3,0,0.4,0.1c0.4,0.2,0.9,0.3,1.3,0.4c0.1,0,0.2,0,0.3,0c0.1,0,0.1,0,0.1,0.1c0,0.1,0,0.3,0,0.4
			c0,0.1,0,0.1-0.1,0.1c0,0-0.1,0-0.1,0C9.2,11.4,8.3,11.4,7.4,11.4z"/>
		<path class="st1" d="M1.2,8C1,8,0.8,8,0.6,8C0.4,8,0.1,7.7,0.1,7.5c0-0.3,0.2-0.6,0.5-0.6c0.4,0,0.8,0,1.2,0
			c0.3,0,0.5,0.2,0.5,0.4c0.1,0.2,0,0.5-0.2,0.6C2,8,1.9,8,1.8,8c0,0,0,0,0,0C1.6,8,1.4,8,1.2,8z"/>
		<path class="st1" d="M1.2,12.5c-0.2,0-0.3,0-0.5,0c-0.3,0-0.6-0.2-0.6-0.5c0-0.3,0.2-0.6,0.5-0.6c0.2,0,0.5,0,0.7,0
			c0.2,0,0.3,0,0.5,0c0.2,0,0.4,0.1,0.5,0.3c0.1,0.2,0.1,0.4-0.1,0.6c-0.1,0.2-0.3,0.2-0.5,0.2C1.6,12.5,1.4,12.5,1.2,12.5z"/>
		<path class="st1" d="M1.2,10.2c-0.2,0-0.4,0-0.6,0c-0.3,0-0.5-0.2-0.6-0.5c0-0.2,0.2-0.5,0.4-0.6c0.1,0,0.1,0,0.2,0
			c0.3,0,0.7,0,1,0c0.3,0,0.5,0.2,0.6,0.4c0.1,0.4-0.2,0.7-0.5,0.7C1.6,10.2,1.4,10.2,1.2,10.2z"/>
		<path class="st1" d="M1.2,14.8c-0.2,0-0.4,0-0.5,0c-0.3,0-0.6-0.2-0.6-0.6c0-0.3,0.2-0.5,0.5-0.6c0.4,0,0.8,0,1.2,0
			c0.4,0,0.6,0.5,0.5,0.8c-0.1,0.2-0.3,0.3-0.6,0.3C1.6,14.8,1.4,14.8,1.2,14.8z"/>
		<path class="st1" d="M1.2,4.6c0.2,0,0.4,0,0.5,0c0.3,0,0.6,0.2,0.6,0.5c0,0.3-0.2,0.6-0.5,0.6c-0.4,0-0.8,0-1.2,0
			c-0.3,0-0.5-0.3-0.5-0.6c0-0.3,0.2-0.5,0.6-0.6C0.8,4.6,1,4.6,1.2,4.6C1.2,4.6,1.2,4.6,1.2,4.6z"/>
		<path class="st0" d="M5.7,9.1c-0.3,0-0.6,0-1,0c-0.1,0-0.1,0-0.1-0.1c0-0.3,0-0.6,0-0.9C4.6,8,4.6,8,4.7,8c0.4,0,0.7,0,1.1,0
			C5.9,8,6,8,6,8.1c0.1,0.2,0.3,0.4,0.4,0.6c0.1,0.1,0.2,0.2,0.3,0.4c0,0,0,0,0,0.1c0,0,0,0-0.1,0C6.4,9.1,6,9.1,5.7,9.1
			C5.7,9.1,5.7,9.1,5.7,9.1z"/>
		<path class="st0" d="M5,6.9c-0.1,0-0.2,0-0.3,0c-0.1,0-0.1,0-0.1-0.1c0-0.3,0-0.6,0-1c0-0.1,0-0.1,0.1-0.1c0.1,0,0.3,0,0.4,0
			c0.1,0,0.1,0,0.1,0.1c0,0.3,0.1,0.6,0.2,0.9c0,0.1,0,0.1-0.1,0.1C5.2,6.9,5.1,6.9,5,6.9C5,6.9,5,6.9,5,6.9z"/>
		<g>
			<path class="st2" d="M15.9,5c0-0.2,0-0.5-0.1-0.7c-0.1-0.7-0.4-1.3-0.7-1.9c-0.2-0.4-0.5-0.7-0.8-1c-0.3-0.3-0.6-0.5-0.9-0.7
				c-0.5-0.3-1.1-0.5-1.6-0.6c-0.3,0-0.6-0.1-0.9-0.1c-0.3,0-0.5,0-0.8,0.1C9.3,0.3,8.8,0.5,8.2,0.8C7.7,1.1,7.2,1.5,6.8,2
				C6.5,2.4,6.2,2.9,6,3.5C5.9,3.9,5.8,4.4,5.7,4.9c0,0.2,0,0.3,0,0.5c0,0.2,0,0.5,0.1,0.7c0.1,0.8,0.4,1.4,0.9,2.1
				c0.4,0.6,1,1.1,1.6,1.4c0.8,0.4,1.6,0.7,2.5,0.7c0.2,0,0.5,0,0.7-0.1c0.5-0.1,1-0.2,1.4-0.4c0.6-0.3,1.2-0.7,1.6-1.2
				c0.3-0.3,0.5-0.7,0.8-1c0.3-0.5,0.5-1,0.5-1.6c0-0.2,0.1-0.5,0.1-0.8C15.9,5.1,15.9,5,15.9,5z M10.8,9.1c-2.1,0-4-1.8-3.9-4
				c0-2,1.8-3.9,3.9-3.8c2.1-0.1,4,1.8,3.9,4C14.7,7.3,13,9.1,10.8,9.1z"/>
			<path class="st3" d="M13,3.4c-0.1-0.1-0.1-0.1-0.2,0c-0.2,0.1-0.4,0.2-0.6,0.3C12,3.8,11.7,4,11.5,4.1c-0.1,0-0.1,0.1-0.2,0
				c-0.1-0.1-0.3-0.1-0.4-0.1c-0.1,0-0.1,0-0.1-0.1c-0.1-0.2-0.2-0.4-0.3-0.6C10.2,3,10,2.6,9.7,2.1C9.6,2,9.6,2,9.5,2.1
				C9.2,2.2,9,2.3,8.8,2.5C8.7,2.6,8.7,2.6,8.7,2.7c0.2,0.3,0.4,0.7,0.6,1C9.5,4,9.6,4.2,9.8,4.5c0,0.1,0.1,0.2,0,0.2
				C9.7,5,9.7,5.2,9.7,5.5c0.1,0.5,0.6,0.8,1.1,0.8c0.1,0,0.1,0,0.2,0c0.5-0.1,0.9-0.5,1-1c0-0.1,0.1-0.2,0.1-0.2
				c0.4-0.2,0.8-0.5,1.2-0.7c0.1,0,0.2-0.1,0.2-0.2c0-0.1-0.1-0.2-0.1-0.2C13.3,3.8,13.2,3.6,13,3.4z"/>
		</g>
	</g>
</g>
</svg>
