<?xml version="1.0" ?><svg enable-background="new 0 0 26 26" id="Слой_1" version="1.1" viewBox="0 0 26 26" xml:space="preserve" xmlns="http://www.w3.org/2000/svg" xmlns:xlink="http://www.w3.org/1999/xlink"><path d="M20.875,8.875c-1.3411255,0-2.5230713,0.6532593-3.2769775,1.647644L9.0714111,6.2593384  C9.1760864,5.8965454,9.25,5.5209961,9.25,5.125C9.25,2.8505859,7.3994141,1,5.125,1S1,2.8505859,1,5.125S2.8505859,9.25,5.125,9.25  c1.3413086,0,2.5234375-0.6534424,3.2772827-1.6480103l8.5264282,4.2632446C16.8239746,12.2281494,16.75,12.6038208,16.75,13  c0,0.3959961,0.0739136,0.7715454,0.1785889,1.1343384L8.4019775,18.397644C7.6480713,17.4032593,6.4661255,16.75,5.125,16.75  C2.8505859,16.75,1,18.6005859,1,20.875S2.8505859,25,5.125,25s4.125-1.8505859,4.125-4.125  c0-0.3961792-0.0739746-0.7718506-0.1787109-1.1347656l8.5264282-4.2632446C18.3515625,16.4715576,19.5336914,17.125,20.875,17.125  C23.1494141,17.125,25,15.2744141,25,13S23.1494141,8.875,20.875,8.875z M5.125,7.75C3.6777344,7.75,2.5,6.5722656,2.5,5.125  S3.6777344,2.5,5.125,2.5S7.75,3.6777344,7.75,5.125S6.5722656,7.75,5.125,7.75z M5.125,23.5  c-1.4472656,0-2.625-1.1777344-2.625-2.625s1.1777344-2.625,2.625-2.625s2.625,1.1777344,2.625,2.625S6.5722656,23.5,5.125,23.5z   M20.875,15.625c-1.4472656,0-2.625-1.1777344-2.625-2.625s1.1777344-2.625,2.625-2.625S23.5,11.5527344,23.5,13  S22.3222656,15.625,20.875,15.625z" fill="#1D1D1B"/></svg>