<?xml version="1.0" encoding="utf-8"?>
<!-- Generator: Adobe Illustrator 23.1.0, SVG Export Plug-In . SVG Version: 6.00 Build 0)  -->
<svg version="1.1" id="Ebene_1" xmlns="http://www.w3.org/2000/svg" xmlns:xlink="http://www.w3.org/1999/xlink" x="0px" y="0px"
	 width="16px" height="16px" viewBox="0 0 16 16" style="enable-background:new 0 0 16 16;" xml:space="preserve">
<style type="text/css">
	.st0{fill:#0873EF;}
	.st1{fill:#0A3D79;}
	.st2{fill:none;stroke:#000000;stroke-width:2.0558;stroke-linecap:round;stroke-linejoin:round;stroke-miterlimit:10;}
</style>
<g>
	<path class="st0" d="M15.7,9.5c0,0,0-0.1,0-0.1c0,0,0,0,0,0c0-2.3,0-4.7,0-7c0-0.1,0-0.3,0-0.4c0-0.3-0.1-0.6-0.2-0.8
		c-0.3-0.5-0.7-0.7-1.3-0.7c-1.6,0-6.5,0-8.1,0c0,0-0.1,0-0.1,0c0,0-0.1,0-0.1,0c-0.9,0-1.8,0-2.7,0c-0.2,0-0.3,0-0.5,0
		C2.4,0.5,2.1,0.7,1.9,1c0,0.1,0,0.1,0.1,0.1c0.1,0,0.3,0,0.4,0c0.5,0,0.9,0.2,1.2,0.6c0.6,1-0.1,2-0.9,2.1c0,0-0.1,0-0.1,0
		c0,0,0,0,0,0c0,0,0,0,0,0c0,0,0.1,0,0.1,0c0.6,0.2,1.1,0.7,1.1,1.3c0,0.6-0.4,1.2-1,1.4c-0.1,0-0.1,0-0.3,0.1
		C3.3,6.9,3.7,7.4,3.8,8c0,0.4-0.1,0.7-0.3,1C3.2,9.3,2.9,9.5,2.5,9.5C2.9,9.6,3.2,9.7,3.5,10c0.2,0.3,0.4,0.6,0.3,1
		c-0.1,0.8-0.7,1.2-1.2,1.3c0.1,0,0.1,0,0.2,0.1c0.3,0.1,0.6,0.3,0.8,0.6c0.4,0.7,0.3,1.4-0.3,1.9c-0.3,0.2-0.6,0.3-0.9,0.3
		c-0.1,0-0.2,0-0.4,0c-0.1,0-0.1,0,0,0.1c0.1,0.1,0.2,0.2,0.3,0.3c0.3,0.3,0.7,0.4,1.1,0.4c3.5,0,7,0,10.6,0c0.1,0,0.3,0,0.4,0
		c0.3,0,0.6-0.1,0.8-0.2c0.5-0.3,0.7-0.7,0.7-1.3C15.7,12.7,15.7,11.1,15.7,9.5z M14,14.4c-3.1,0-6.1,0-9.2,0c-0.3,0-0.3,0-0.3-0.3
		c0-3.3,0-6.6,0-9.9c0-0.8,0-1.5,0-2.3c0-0.2,0-0.2,0.2-0.2c0.3,0,0.6,0,0.9,0c0.3,0,0.6,0,0.9,0c0,0,0.1,0,0.1,0c1.6,0,6,0,7.4,0
		c0.3,0,0.3,0,0.3,0.3c0,3.1,0,6.1,0,9.2l0,0c0,0.9,0,1.9,0,2.8C14.3,14.4,14.3,14.4,14,14.4z"/>
	<path class="st0" d="M9.4,13c-1.1,0-2.2,0-3.2,0c-0.3,0-0.3,0-0.3-0.3c0-0.3,0-0.6,0-1c0-0.2,0-0.2,0.2-0.2c0,0,0,0,0,0
		c2.2,0,4.4,0,6.6,0c0.2,0,0.2,0,0.2,0.2c0,0.4,0,0.7,0,1.1c0,0.2,0,0.2-0.2,0.2c-0.3,0-0.6,0-0.9,0C11,13,10.2,13,9.4,13z"/>
	<path class="st0" d="M9.4,10.2c-1.1,0-2.2,0-3.2,0c-0.3,0-0.3,0-0.3-0.3c0-0.3,0-0.6,0-1c0-0.2,0-0.2,0.2-0.2c0,0,0,0,0,0
		c2.2,0,4.4,0,6.6,0c0.2,0,0.2,0,0.2,0.2c0,0.4,0,0.7,0,1.1c0,0.2,0,0.2-0.2,0.2c-0.3,0-0.6,0-0.9,0C11,10.2,10.2,10.2,9.4,10.2z"/>
	<path class="st0" d="M9.4,7.4c-1.1,0-2.2,0-3.2,0c-0.3,0-0.3,0-0.3-0.3c0-0.3,0-0.6,0-1C5.9,6,5.9,6,6.1,6c0,0,0,0,0,0
		c2.2,0,4.4,0,6.6,0c0.2,0,0.2,0,0.2,0.2c0,0.4,0,0.7,0,1.1c0,0.2,0,0.2-0.2,0.2c-0.3,0-0.6,0-0.9,0C11,7.4,10.2,7.4,9.4,7.4z"/>
	<path class="st0" d="M9.4,4.6c-1.1,0-2.2,0-3.2,0c-0.3,0-0.3,0-0.3-0.3c0-0.3,0-0.6,0-1c0-0.2,0-0.2,0.2-0.2c0,0,0,0,0,0
		c2.2,0,4.4,0,6.6,0c0.2,0,0.2,0,0.2,0.2c0,0.4,0,0.7,0,1.1c0,0.2,0,0.2-0.2,0.2c-0.3,0-0.6,0-0.9,0C11,4.6,10.2,4.6,9.4,4.6z"/>
	<path class="st1" d="M1.7,6C1.4,6,1.2,6,1,6C0.6,6,0.3,5.7,0.3,5.4C0.3,5,0.5,4.6,1,4.6c0.5,0,1,0,1.5,0c0.3,0,0.6,0.2,0.7,0.5
		c0.1,0.3,0,0.6-0.3,0.8C2.7,6,2.6,6,2.4,6c0,0,0,0,0,0C2.1,6,1.9,6,1.7,6z"/>
	<path class="st1" d="M1.7,11.7c-0.2,0-0.4,0-0.6,0c-0.4,0-0.7-0.2-0.8-0.7c0-0.3,0.2-0.7,0.7-0.8c0.3,0,0.6,0,0.9,0
		c0.2,0,0.4,0,0.6,0c0.3,0,0.5,0.2,0.6,0.4c0.1,0.3,0.1,0.5-0.1,0.7c-0.2,0.2-0.4,0.3-0.6,0.3C2.1,11.7,1.9,11.7,1.7,11.7z"/>
	<path class="st1" d="M1.7,8.8c-0.2,0-0.5,0-0.7,0c-0.4,0-0.6-0.3-0.7-0.6c0-0.3,0.2-0.7,0.5-0.7c0.1,0,0.2,0,0.3,0
		c0.4,0,0.8,0,1.2,0c0.4,0,0.7,0.2,0.7,0.5c0.1,0.4-0.2,0.9-0.6,0.9C2.2,8.8,1.9,8.8,1.7,8.8z"/>
	<path class="st1" d="M1.7,14.5c-0.2,0-0.4,0-0.7,0c-0.4,0-0.7-0.3-0.7-0.7c0-0.3,0.3-0.7,0.7-0.7c0.5,0,1,0,1.5,0
		c0.5,0,0.8,0.6,0.6,1c-0.1,0.3-0.4,0.4-0.7,0.4C2.1,14.5,1.9,14.5,1.7,14.5z"/>
	<path class="st1" d="M1.7,1.8c0.2,0,0.4,0,0.7,0c0.4,0,0.7,0.3,0.7,0.7c0,0.4-0.3,0.7-0.7,0.7c-0.5,0-1,0-1.5,0
		c-0.4,0-0.7-0.3-0.7-0.7c0-0.4,0.3-0.7,0.7-0.7C1.2,1.8,1.5,1.8,1.7,1.8C1.7,1.8,1.7,1.8,1.7,1.8z"/>
</g>
<g>
	<path d="M193.4,38.9c0-0.9,0-1.7,0-2.6c0-0.1,0-0.1,0-0.2c0-56,0-112.1,0-168.1c0-3.4,0.2-6.9,0-10.3c-0.5-6.7-1.3-13.3-5.1-19.1
		c-7.3-11.1-17.5-16.9-30.9-16.9c-39,0.1-154.5,0-193.5,0c-0.9,0-1.7,0-2.6,0c-1.1,0-1.4,0.3-1.9,0.4c-21.5,0-42.9,0-64.4,0
		c-3.7,0-7.6,0.2-11.2,1.1c-8.4,2-15.5,6.2-20.3,13.8c-1.1,1.8-0.8,2.5,1.3,2.6c3.1,0.1,6.2,0.1,9.2,0.1c11.9-0.1,21.6,5,27.9,14.6
		c15.4,23.4-1.7,47.9-20.7,51c-0.7,0.1-1.3,0.3-2,0.5c-0.2,0.1-0.5,0.5-0.5,0.8c0,0.2,0.4,0.5,0.6,0.6c0.7,0.1,1.4,0.1,2,0.2
		c15.4,3.9,25.8,15.6,26.2,32c0.3,14.7-9,28.3-24.7,32.5c-1.7,0.4-3.4,0.9-6,1.7c20.5,3.5,29.1,16.1,30.7,31.3
		c0.9,8.9-2.4,16.9-7.9,23.7c-5.5,6.8-13.2,10.2-21.8,11.9c8.7,1.8,16.3,5.1,22,12.2c5.6,7,8.5,14.9,7.8,23.8
		c-1.5,18.5-15.9,29.1-29.7,31.1c1.6,0.4,3.2,0.9,4.9,1.3c8.3,1.9,14.8,6.8,19.2,13.7c10.3,15.8,6.5,34.3-8.3,45.5
		c-6.1,4.6-13.2,6.3-20.7,6.3c-2.9,0-5.8,0-8.7,0.1c-1.4,0.1-1.8,1-1,2.1c1.9,2.4,3.8,4.9,6.1,6.9c7.2,6.3,15.8,8.5,25.1,8.5
		c84.2,0,168.5,0,252.7,0c3.4,0,6.9,0.2,10.3,0c6.7-0.5,13.3-1.3,19.1-5.1c11.1-7.3,16.9-17.5,16.9-30.9
		C193.3,117,193.4,77.9,193.4,38.9z M152.2,158c-73.3,0-146.6,0-219.9,0c-8,0-7.2,0.9-7.2-7c0-78.7,0-157.5,0-236.2
		c0-18,0-35.9,0-53.9c0-4.5,0.1-4.5,4.6-4.5c7.2,0,14.4,0,21.6,0c7.2,0,14.4,0,21.6,0c0.9,0,1.6-0.2,2.1-0.4c38.4,0,143.5,0,177.3,0
		c6.9,0,6.9,0,6.9,7.1c0,73.3,0,146.6,0,219.9l0,0.2c0,22.7,0,45.4,0,68.1C159.3,158,159.3,158,152.2,158z"/>
	<path d="M42.1,124.4c-25.8,0-51.7,0-77.5,0c-7.1,0-6.5,0.6-6.5-6.8c0-7.7,0-15.4,0-23.1c0-4,0.1-4,4-4.2c0.2,0,0.3,0,0.5,0
		c52.9,0,105.8,0,158.7,0c4.3,0,4.5,0.1,4.5,4.2c0.1,8.6,0.1,17.1,0,25.7c0,4-0.1,4.1-4,4.1c-7.4,0.1-14.7,0-22.1,0
		C80.4,124.4,61.2,124.4,42.1,124.4z"/>
	<path d="M42.1,57.6c-25.8,0-51.7,0-77.5,0c-7.1,0-6.5,0.6-6.5-6.8c0-7.7,0-15.4,0-23.1c0-4,0.1-4,4-4.2c0.2,0,0.3,0,0.5,0
		c52.9,0,105.8,0,158.7,0c4.3,0,4.5,0.1,4.5,4.2c0.1,8.6,0.1,17.1,0,25.7c0,4-0.1,4.1-4,4.1c-7.4,0.1-14.7,0-22.1,0
		C80.4,57.6,61.2,57.6,42.1,57.6z"/>
	<path d="M42.1-9.2c-25.8,0-51.7,0-77.5,0c-7.1,0-6.5,0.6-6.5-6.8c0-7.7,0-15.4,0-23.1c0-4,0.1-4,4-4.2c0.2,0,0.3,0,0.5,0
		c52.9,0,105.8,0,158.7,0c4.3,0,4.5,0.1,4.5,4.2c0.1,8.6,0.1,17.1,0,25.7c0,4-0.1,4.1-4,4.1c-7.4,0.1-14.7,0-22.1,0
		C80.4-9.2,61.2-9.2,42.1-9.2z"/>
	<path d="M42.1-76.9c-25.8,0-51.7,0-77.5,0c-7.1,0-6.5,0.6-6.5-6.8c0-7.7,0-15.4,0-23.1c0-4,0.1-4,4-4.2c0.2,0,0.3,0,0.5,0
		c52.9,0,105.8,0,158.7,0c4.3,0,4.5,0.1,4.5,4.2c0.1,8.6,0.1,17.1,0,25.7c0,4-0.1,4.1-4,4.1c-7.4,0.1-14.7,0-22.1,0
		C80.4-76.9,61.2-76.9,42.1-76.9z"/>
	<path d="M-142.7-43.1c-5.6,0-11.3,0.1-16.9,0c-8.7-0.1-16.8-7.5-16.7-16.1c0.1-9.1,6.5-17.5,16.3-17.8c11.6-0.3,23.2-0.4,34.8,0
		c8.2,0.3,13.5,4.8,16.1,12.8c2,6.1-0.9,14-6.6,18.1c-2.8,2.1-6.1,3-9.6,3c-0.2,0-0.3,0-0.5,0C-131.5-43.1-137.1-43.1-142.7-43.1z"
		/>
	<path d="M-142.6,91.4c-5,0-9.9,0-14.9,0c-10.2-0.1-17.4-5.9-18.7-16c-1-7.6,5.1-17.7,15.6-18c7.4-0.2,14.7,0,22.1,0
		c4.6,0,9.2,0,13.9,0c7,0.1,11.7,3.9,14.4,9.8c2.9,6.2,2.1,12.2-2.5,17.7c-4,4.6-9,6.6-14.9,6.6C-132.6,91.4-137.6,91.4-142.6,91.4z
		"/>
	<path d="M-142.7,23.7c-5.6,0-11.3,0-16.9,0c-9-0.1-15.4-6-16.8-15.4c-1-7.3,5-15.6,12.9-17.6c2.1-0.5,4.4-0.9,6.6-0.9
		c9.9-0.1,19.8-0.1,29.8,0c8.8,0,15.8,5.8,17.8,12.8c3,10.4-4.5,21-15.3,21.2C-130.7,23.8-136.7,23.7-142.7,23.7z"/>
	<path d="M-142.9,158.2c-5.3,0-10.6,0-15.9,0c-9.1,0.1-17.1-6.6-17.5-17.2c-0.3-8.3,6.4-16.3,15.6-16.7c12.3-0.5,24.7-0.7,36.9,0
		c12.2,0.8,18,14.4,13.6,23.5c-3.4,7-9,10-16.3,10.2C-131.9,158.4-137.4,158.2-142.9,158.2z"/>
	<path d="M-141.8-143.9c5.3,0,10.6,0.2,15.9-0.1c8.5-0.4,17.1,7.4,17.3,16.1c0.2,9.3-6,17.3-16.1,17.8c-11.9,0.6-24,0.5-35.9,0
		c-9.1-0.4-15.6-7.9-15.6-17.3c0-8.8,7.3-16.2,16.5-16.5C-153.8-144.1-147.8-143.9-141.8-143.9
		C-141.8-143.9-141.8-143.9-141.8-143.9z"/>
	<path class="st2" d="M-112.3,107.3c-3.4,0-6.9,0-10.3,0"/>
	<path class="st2" d="M-112.3,40.6c-3.4,0-6.9,0-10.3,0"/>
	<path class="st2" d="M-112.3-26.2c-3.4,0-6.9,0-10.3,0"/>
	<path class="st2" d="M-112.3-93c-3.1,0-6.2,0-9.2,0"/>
</g>
</svg>
