<svg xmlns="http://www.w3.org/2000/svg" viewBox="0 0 50 50" xml:space="preserve">
  <g fill-rule="evenodd" clip-rule="evenodd">
    <path d="M4.82 23.6v2.34c0 .07.13.21.21.21 1.1.62 2.2 1.31 3.31 1.93 1.72.97 3.38 2 5.1 2.96 1.24.69 2.41 1.38 3.65 2.07.28.13.41.34.41.69v4.41c-4.2-2.41-8.4-4.82-12.67-7.3v2.28c0 .13.21.34.41.41 3.92 2.28 7.85 4.54 11.77 6.82.34.21.48.41.48.82v4.34c-.21-.13-.34-.21-.48-.28-5.37-3.1-10.67-6.2-15.97-9.23-.34-.21-.41-.41-.41-.76V16.39c.21.13.41.21.55.28 4.61 2.69 9.23 5.3 13.84 7.98.69.41 1.44.82 2.13 1.24.13.07.34.28.34.48v4.34c0 .07 0 .07-.07.13-4.2-2.42-8.4-4.83-12.6-7.24z" fill="#c6c6c5"/>
    <path d="M26.58 41.84V27.25c-.69.41-1.38.76-1.93 1.17-.13.07-.13.34-.13.55v13.56c0 .41-.13.69-.48.9-1.24.69-2.41 1.38-3.65 2.13 0-.21-.07-.34-.07-.48V26.56c0-.28.07-.48.34-.69 5.37-3.1 10.67-6.2 16.05-9.23.13-.07.28-.13.48-.21v18.46c0 .82-.21 1.17-.82 1.51-.97.48-1.93 1.1-2.89 1.65-.13.07-.28.13-.48.28V23.74c-.76.41-1.38.82-2.07 1.24-.07.07-.07.34-.07.48v13.77c0 .13-.07.41-.13.48-1.4.55-2.78 1.31-4.15 2.13z" opacity=".45" fill="#b1b1b1"/>
    <path d="M19.62 24.08c-.48.41-.69.41-1.38 0-5.37-3.1-10.67-6.2-16.05-9.23-.28-.13-.55-.34-.9-.55.21-.13.34-.21.48-.34 5.51-3.17 11.02-6.33 16.52-9.57.34-.21.55-.21.9 0 5.51 3.23 11.08 6.41 16.59 9.57.13.07.21.13.41.28-.13.13-.28.21-.41.28-5.23 3.03-10.19 5.99-15.49 9.02-.39.34-.32.27-.67.54zm-9.7-9.84c.21.13.34.21.48.34 2.62 1.51 5.3 3.03 7.92 4.54.34.21.55.21.9 0 2.62-1.51 5.3-3.03 7.92-4.54.13-.07.28-.21.48-.28-.13-.13-.28-.21-.34-.28-2.69-1.59-5.44-3.1-8.13-4.69-.28-.13-.48-.07-.76.07-2.62 1.51-5.23 3.03-7.85 4.54-.21.02-.35.15-.62.3z" fill="#b1b1b1"/>
  </g>
</svg>
