<?xml version="1.0" ?><!DOCTYPE svg  PUBLIC '-//W3C//DTD SVG 1.1//EN'  'http://www.w3.org/Graphics/SVG/1.1/DTD/svg11.dtd'><svg enable-background="new 0 0 26 26" id="Слой_1" version="1.1" viewBox="0 0 26 26" xml:space="preserve" xmlns="http://www.w3.org/2000/svg" xmlns:xlink="http://www.w3.org/1999/xlink"><g><path d="M22,1H4C3.5859375,1,3.25,1.3359375,3.25,1.75v18.4013672   c0,0.0976563,0.0199585,0.1949463,0.0579224,0.2866211c0.0380249,0.0916138,0.0927124,0.1745605,0.1618042,0.2436523   l4.0986328,4.0986328c0.0690918,0.0690918,0.1520386,0.1237793,0.2436523,0.1618042   C7.9037476,24.9800415,8.0009766,25,8.0986328,25H22c0.4140625,0,0.75-0.3359375,0.75-0.75V1.75C22.75,1.3359375,22.4140625,1,22,1   z M7.3486328,22.4394531l-1.5380859-1.5380859h1.5380859V22.4394531z M21.25,23.5H8.8486328v-3.3486328   c0-0.4140625-0.3359375-0.75-0.75-0.75H4.75V2.5h16.5V23.5z" fill="#1D1D1B"/><path d="M7.0493164,5.5H12.4375c0.2763672,0,0.5-0.2236328,0.5-0.5s-0.2236328-0.5-0.5-0.5H7.0493164   c-0.2763672,0-0.5,0.2236328-0.5,0.5S6.7729492,5.5,7.0493164,5.5z" fill="#1D1D1B"/><path d="M7.0493164,7.5h2.6938477c0.2763672,0,0.5-0.2236328,0.5-0.5s-0.2236328-0.5-0.5-0.5H7.0493164   c-0.2763672,0-0.5,0.2236328-0.5,0.5S6.7729492,7.5,7.0493164,7.5z" fill="#1D1D1B"/><path d="M10.875,7c0,0.2763672,0.2236328,0.5,0.5,0.5h3.25c0.2763672,0,0.5-0.2236328,0.5-0.5   s-0.2236328-0.5-0.5-0.5h-3.25C11.0986328,6.5,10.875,6.7236328,10.875,7z" fill="#1D1D1B"/><path d="M7,15.75h12c0.2763672,0,0.5-0.2236328,0.5-0.5v-6c0-0.2763672-0.2236328-0.5-0.5-0.5H7   c-0.2763672,0-0.5,0.2236328-0.5,0.5v6C6.5,15.5263672,6.7236328,15.75,7,15.75z M16.5,11.03125v1h-1.625v-1H16.5z    M14.875,10.53125V9.75H16.5v0.78125H14.875z M14.875,13.53125v-1H16.5v1H14.875z M16.5,14.03125V14.75h-1.625v-0.71875H16.5z    M7.5,12.53125h6.875v1H7.5V12.53125z M17,12.53125h1.5v1H17V12.53125z M18.5,12.03125H17v-1h1.5V12.03125z M14.375,12.03125H7.5   v-1h6.875V12.03125z M7.5,14.03125h6.875V14.75H7.5V14.03125z M17,14.75v-0.71875h1.5V14.75H17z M18.5,10.53125H17V9.75h1.5   V10.53125z M14.375,9.75v0.78125H7.5V9.75H14.375z" fill="#1D1D1B"/><path d="M16.8173828,16.3496094c-0.8711548,0-1.6316528,0.4620361-2.0640869,1.1503906h-0.7039795   c-0.2763672,0-0.5,0.2236328-0.5,0.5s0.2236328,0.5,0.5,0.5h0.3552246C14.3928223,18.5968628,14.375,18.6920166,14.375,18.7919922   c0,1.3466797,1.0957031,2.4423828,2.4423828,2.4423828s2.4418945-1.0957031,2.4418945-2.4423828   S18.1640625,16.3496094,16.8173828,16.3496094z M16.8173828,20.734375c-1.0708008,0-1.9423828-0.8710938-1.9423828-1.9423828   c0-0.0999756,0.0148926-0.1960449,0.029541-0.2919922h0.3500977c-0.0177002,0.0949707-0.029541,0.1920166-0.029541,0.2919922   c0,0.8779297,0.7143555,1.5917969,1.5922852,1.5917969s1.5917969-0.7138672,1.5917969-1.5917969   s-0.7138672-1.5927734-1.5917969-1.5927734c-0.3452148,0-0.6627808,0.1132813-0.9238892,0.3007813h-0.515686   c0.355896-0.3961792,0.8665161-0.6503906,1.4395752-0.6503906c1.0708008,0,1.9418945,0.8710938,1.9418945,1.9423828   S17.8881836,20.734375,16.8173828,20.734375z M16.75,18.5c0.2763672,0,0.5-0.2236328,0.5-0.5   c0-0.0823975-0.0246582-0.1567993-0.0598755-0.2252808c0.4172363,0.1537476,0.7190552,0.5469971,0.7190552,1.0172729   c0,0.6015625-0.4897461,1.0917969-1.0917969,1.0917969s-1.0922852-0.4902344-1.0922852-1.0917969   c0-0.1035156,0.0320435-0.1970215,0.059082-0.2919922H16.75z" fill="#1D1D1B"/><path d="M12.4375,17.5H7.0493164c-0.2763672,0-0.5,0.2236328-0.5,0.5s0.2236328,0.5,0.5,0.5H12.4375   c0.2763672,0,0.5-0.2236328,0.5-0.5S12.7138672,17.5,12.4375,17.5z" fill="#1D1D1B"/></g></svg>